<?xml version="1.0" encoding="utf-8"?>
<!-- Generator: Adobe Illustrator 18.1.1, SVG Export Plug-In . SVG Version: 6.00 Build 0)  -->
<!DOCTYPE svg PUBLIC "-//W3C//DTD SVG 1.1//EN" "http://www.w3.org/Graphics/SVG/1.1/DTD/svg11.dtd">
<svg version="1.1" id="Ebene_1" xmlns="http://www.w3.org/2000/svg" xmlns:xlink="http://www.w3.org/1999/xlink" x="0px" y="0px"
	 viewBox="0 0 595.3 595.3" enable-background="new 0 0 595.3 595.3" xml:space="preserve">
<g>
	<g>
		<path fill="#0090D4" d="M375.9,243.2c-32.3,0-63.8,23.8-63.8,79.9c0,39.1,21.3,77.4,62.9,77.4c34.9,0,63.8-28.1,63.8-78.2
			C438.8,273.8,413.3,243.2,375.9,243.2z"/>
		<path fill="#0090D4" d="M558.7,0H37.4C16.2,0,0,17,0,37.4v520.4c0,21.3,17,37.4,37.4,37.4h520.4c21.3,0,37.4-17,37.4-37.4V37.4
			C595.3,17,578.3,0,558.7,0z M131,97.8h54.4v57.8H131V97.8z M386.1,454.1c-50.2,0-72.3-33.2-72.3-33.2h-0.9c0,0,0.9,9.4,0.9,22.1
			v86.7h-62.9V449h-89.3c-23,0-33.2-10.2-33.2-33.2V255.1c0-7.7-4.3-11.1-11.1-11.1H96.9v-49.3h59.5c23,0,33.2,10.2,33.2,28.9v159.9
			c0,11.9,4.3,16.2,11.1,16.2H250V254.3c0-7.7-4.3-11.1-11.1-11.1h-19.6v-49.3h55.3c23,0,31.5,10.2,31.5,23.8c0,6,0,10.2,0,10.2h0.9
			c0,0,21.3-40.8,80.8-40.8c68,0,113.1,54.4,113.1,132.7C502.6,401.4,452.4,454.1,386.1,454.1z"/>
	</g>
</g>
</svg>
